<svg width="37" height="25" viewBox="0 0 37 25" fill="none" xmlns="http://www.w3.org/2000/svg">
<path d="M36.1616 12.4184C36.1616 15.9187 28.0656 24.0718 18.0808 24.0718C8.09488 24.0718 0 16.9198 0 12.4184C0 8.90756 36.1616 8.90756 36.1616 12.4184Z" fill="#E1E8ED"/>
<path d="M36.1616 12.4184H0C0 8.90863 8.09594 0.765015 18.0808 0.765015C28.0656 0.765015 36.1616 8.90757 36.1616 12.4184Z" fill="#292F33"/>
<path d="M34.8455 12.4184C34.8455 15.4949 27.3376 22.6596 18.0795 22.6596C8.82031 22.6596 1.31445 16.3721 1.31445 12.4184C1.31445 9.33341 8.82031 2.17822 18.0795 2.17822C27.3376 2.17716 34.8455 9.33341 34.8455 12.4184Z" fill="#F5F8FA"/>
<path d="M18.0893 21.3788C23.038 21.3788 27.0497 17.3671 27.0497 12.4184C27.0497 7.46972 23.038 3.45801 18.0893 3.45801C13.1406 3.45801 9.12891 7.46972 9.12891 12.4184C9.12891 17.3671 13.1406 21.3788 18.0893 21.3788Z" fill="#8B5E3C"/>
<path d="M18.0892 17.4061C20.8438 17.4061 23.0769 15.173 23.0769 12.4184C23.0769 9.66381 20.8438 7.43076 18.0892 7.43076C15.3346 7.43076 13.1016 9.66381 13.1016 12.4184C13.1016 15.173 15.3346 17.4061 18.0892 17.4061Z" fill="#292F33"/>
<path d="M14.8922 11.3591C16.0624 11.3591 17.011 10.4104 17.011 9.24026C17.011 8.07008 16.0624 7.12146 14.8922 7.12146C13.7221 7.12146 12.7734 8.07008 12.7734 9.24026C12.7734 10.4104 13.7221 11.3591 14.8922 11.3591Z" fill="#F5F8FA"/>
</svg>
