<svg width="37" height="39" viewBox="0 0 37 39" fill="none" xmlns="http://www.w3.org/2000/svg">
<path d="M36.3237 20.1633C36.3237 17.9702 35.9334 15.8675 35.2176 13.9222C34.7283 19.6538 31.6727 22.5978 28.4798 21.2268C25.489 19.942 27.5045 14.9337 27.6534 12.5438C27.9044 8.49265 27.6407 3.85546 20.2818 0C23.3396 5.84967 20.6359 9.48391 17.8005 9.70513C14.6544 9.95082 11.7732 7.00152 12.8367 2.21543C9.39288 4.75312 9.29291 9.02444 10.3554 11.7876C11.4637 14.6678 10.3108 17.0608 7.6082 17.3267C4.58765 17.6245 2.90933 14.0924 4.45683 8.46394C1.77874 11.6174 0.162109 15.7016 0.162109 20.1633C0.162109 30.1492 8.25699 38.2441 18.2429 38.2441C28.2288 38.2441 36.3237 30.1492 36.3237 20.1633Z" fill="#F4900C"/>
<path d="M29.2982 25.48C29.4556 28.7601 26.5744 30.046 25.0237 29.4249C22.7838 28.5283 23.3847 26.9882 22.8082 23.7975C22.2318 20.6067 20.0164 18.3913 16.7374 17.416C19.1304 24.1516 15.4111 26.634 13.4615 27.0775C11.4705 27.5306 9.46994 27.0765 9.24127 22.8158C6.91842 25.128 5.48047 28.3272 5.48047 31.8626C5.48047 32.254 5.50493 32.639 5.53897 33.0219C8.80414 36.2488 13.2892 38.244 18.2434 38.244C23.1975 38.244 27.6826 36.2488 30.9478 33.0219C30.9818 32.639 31.0063 32.254 31.0063 31.8626C31.0063 29.5365 30.3852 27.3573 29.2982 25.48Z" fill="#FFCC4D"/>
</svg>
