<svg width="37" height="37" viewBox="0 0 37 37" fill="none" xmlns="http://www.w3.org/2000/svg">
<path d="M4.88888 9.15656C5.8342 8.49584 7.25922 8.62255 8.108 9.3235L7.13452 7.90853C6.35111 6.79124 6.63169 5.58244 7.74999 4.79802C8.86828 4.01662 12.0371 6.11745 12.0371 6.11745C11.2467 4.9891 11.3945 3.55905 12.5229 2.76759C13.6512 1.97915 15.208 2.25169 15.9984 3.38205L26.4774 18.1854L25.1419 31.1333L13.9962 27.0684L4.27442 12.6543C3.47693 11.5189 3.75248 9.95304 4.88888 9.15656V9.15656Z" fill="#EF9645"/>
<path d="M2.71078 17.3919C2.71078 17.3919 1.57237 15.7325 3.23272 14.5951C4.89106 13.4577 6.02846 15.1161 6.02846 15.1161L11.3092 22.8174C11.4912 22.5137 11.6903 22.214 11.9126 21.9184L4.58332 11.2312C4.58332 11.2312 3.44592 9.57285 5.10526 8.43545C6.7636 7.29805 7.901 8.95638 7.901 8.95638L14.7948 19.01C15.0513 18.8008 15.3137 18.5906 15.5843 18.3845L7.59226 6.72783C7.59226 6.72783 6.45486 5.0695 8.1142 3.9321C9.77254 2.79469 10.9099 4.45303 10.9099 4.45303L18.9019 16.1076C19.1956 15.9276 19.4862 15.7717 19.7779 15.6068L12.3078 4.71349C12.3078 4.71349 11.1704 3.05516 12.8287 1.91776C14.4871 0.780352 15.6245 2.43869 15.6245 2.43869L23.5229 13.9575L24.7237 15.7094C19.7477 19.1226 19.274 25.5438 22.117 29.6901C22.6852 30.5198 23.5149 29.9516 23.5149 29.9516C20.1027 24.9746 21.1446 19.3821 26.1216 15.9699L24.6543 8.62652C24.6543 8.62652 24.1062 6.69163 26.0401 6.14254C27.975 5.59445 28.5241 7.52935 28.5241 7.52935L30.2186 12.5617C30.8904 14.5569 31.6054 16.5451 32.5518 18.4257C35.2238 23.7356 33.6278 30.3347 28.5895 33.7912C23.0935 37.5594 15.5802 36.1585 11.811 30.6636L2.71078 17.3919Z" fill="#FFDC5D"/>
<path d="M12.0676 32.1812C8.04496 32.1812 3.98007 28.1163 3.98007 24.0937C3.98007 23.5375 3.57278 23.088 3.01665 23.088C2.46052 23.088 1.96875 23.5375 1.96875 24.0937C1.96875 30.1276 6.03363 34.1925 12.0676 34.1925C12.6237 34.1925 13.0733 33.7008 13.0733 33.1446C13.0733 32.5885 12.6237 32.1812 12.0676 32.1812Z" fill="#5DADEC"/>
<path d="M7.03963 34.1503C4.02265 34.1503 2.01132 32.1389 2.01132 29.1219C2.01132 28.5658 1.56179 28.1163 1.00566 28.1163C0.449531 28.1163 0 28.5658 0 29.1219C0 33.1446 3.01698 36.1616 7.03963 36.1616C7.59576 36.1616 8.04529 35.712 8.04529 35.1559C8.04529 34.5998 7.59576 34.1503 7.03963 34.1503ZM24.1359 1.96909C23.5808 1.96909 23.1302 2.41962 23.1302 2.97475C23.1302 3.52987 23.5808 3.98041 24.1359 3.98041C28.1585 3.98041 32.1812 7.58973 32.1812 12.0257C32.1812 12.5808 32.6317 13.0314 33.1868 13.0314C33.742 13.0314 34.1925 12.5808 34.1925 12.0257C34.1925 6.48048 30.1698 1.96909 24.1359 1.96909Z" fill="#5DADEC"/>
<path d="M29.1639 0C28.6087 0 28.1582 0.408299 28.1582 0.963424C28.1582 1.51855 28.6087 2.01132 29.1639 2.01132C32.1808 2.01132 34.1499 4.24892 34.1499 6.99739C34.1499 7.55252 34.6417 8.00305 35.1978 8.00305C35.754 8.00305 36.1613 7.55252 36.1613 6.99739C36.1613 3.13867 33.1865 0 29.1639 0V0Z" fill="#5DADEC"/>
</svg>
