<svg width="37" height="38" viewBox="0 0 37 38" fill="none" xmlns="http://www.w3.org/2000/svg">
<path d="M31.7951 33.5689C31.7951 35.8862 29.9163 37.765 27.599 37.765H4.52033C2.20303 37.765 0.324219 35.8862 0.324219 33.5689V4.19611C0.324219 1.87881 2.20303 0 4.52033 0H27.599C29.9163 0 31.7951 1.87881 31.7951 4.19611V33.5689Z" fill="#CCD6DD"/>
<path d="M27.5982 25.1766C27.5982 25.7567 27.1292 26.2256 26.5491 26.2256H5.56856C4.9895 26.2256 4.51953 25.7567 4.51953 25.1766C4.51953 24.5965 4.9895 24.1276 5.56856 24.1276H26.5491C27.1292 24.1276 27.5982 24.5965 27.5982 25.1766ZM10.8137 29.3727C10.8137 29.9528 10.3437 30.4218 9.76467 30.4218H5.56856C4.9895 30.4218 4.51953 29.9528 4.51953 29.3727C4.51953 28.7926 4.9895 28.3237 5.56856 28.3237H9.76467C10.3437 28.3237 10.8137 28.7926 10.8137 29.3727ZM27.5982 8.39217C27.5982 8.97123 27.1292 9.4412 26.5491 9.4412H5.56856C4.9895 9.4412 4.51953 8.97123 4.51953 8.39217C4.51953 7.8131 4.9895 7.34314 5.56856 7.34314H26.5491C27.1292 7.34314 27.5982 7.8131 27.5982 8.39217ZM27.5982 12.5883C27.5982 13.1684 27.1292 13.6373 26.5491 13.6373H5.56856C4.9895 13.6373 4.51953 13.1684 4.51953 12.5883C4.51953 12.0082 4.9895 11.5393 5.56856 11.5393H26.5491C27.1292 11.5393 27.5982 12.0082 27.5982 12.5883ZM27.5982 16.7844C27.5982 17.3645 27.1292 17.8334 26.5491 17.8334H5.56856C4.9895 17.8334 4.51953 17.3645 4.51953 16.7844C4.51953 16.2043 4.9895 15.7354 5.56856 15.7354H26.5491C27.1292 15.7354 27.5982 16.2043 27.5982 16.7844ZM27.5982 20.9805C27.5982 21.5606 27.1292 22.0295 26.5491 22.0295H5.56856C4.9895 22.0295 4.51953 21.5606 4.51953 20.9805C4.51953 20.4004 4.9895 19.9315 5.56856 19.9315H26.5491C27.1292 19.9315 27.5982 20.4004 27.5982 20.9805Z" fill="#99AAB5"/>
<path d="M31.7955 6.57947C30.9279 6.01824 29.8684 5.97208 29.1509 6.55534L28.32 7.23301L26.7633 8.50339L26.6584 8.58731L24.1659 10.6203L11.7055 20.7812C11.2471 21.1557 10.8736 22.06 10.475 22.9569C10.0785 23.8486 9.4585 25.9487 8.96126 27.5632C8.80601 27.8254 7.84405 29.4997 8.38325 30.1364C8.92875 30.7816 10.8233 30.1469 11.0772 30.0567C12.7829 29.8742 14.9911 29.6654 15.953 29.4483C16.9223 29.2269 17.8979 29.0339 18.3564 28.6594C18.3648 28.6531 18.3669 28.6405 18.3742 28.6353L30.8136 18.4954L31.6444 17.8177L31.7955 17.6939V6.57947Z" fill="#66757F"/>
<path d="M18.3104 23.6304C18.3104 23.6304 16.9739 21.6572 16.0896 20.9523C15.3846 20.0679 13.4156 18.7325 13.4156 18.7325C12.9456 18.2646 12.1662 18.229 11.7067 18.6874C11.2483 19.1469 10.8749 20.1204 10.4762 21.0907C9.98109 22.2929 9.13767 25.4484 8.62155 27.1247C8.53448 27.4101 9.1639 26.6527 9.14921 26.9044C9.13872 27.1006 9.17754 27.3178 9.22684 27.5139L9.07368 27.6807L9.29188 27.751C9.31811 27.837 9.34433 27.9126 9.36321 27.9713L9.53001 27.8181C9.72618 27.8674 9.94333 27.9063 10.1384 27.8958C10.3902 27.8811 9.63177 28.5116 9.91815 28.4234C11.5945 27.9063 14.751 27.0639 15.9522 26.5688C16.9215 26.1691 17.8971 25.7967 18.3555 25.3372C18.816 24.8809 18.7814 24.1014 18.3104 23.6304Z" fill="#D99E82"/>
<path d="M25.8279 4.56436C24.9089 5.48226 24.9089 6.96978 25.8279 7.88768L29.1502 11.211C30.0691 12.1279 31.5566 12.1279 32.4735 11.211L35.7978 7.88768C36.7147 6.96978 36.7147 5.48226 35.7978 4.56436L32.4735 1.24104C31.5566 0.323137 30.0691 0.323137 29.1502 1.24104L25.8279 4.56436Z" fill="#EA596E"/>
<path d="M11.7051 18.6884L15.0305 22.0138L18.3507 25.3351L30.8142 12.8737L24.1665 6.22702L11.7051 18.6884Z" fill="#FFCC4D"/>
<path d="M11.1279 28.0531C11.1279 28.0531 8.96695 29.2417 8.38369 28.6573C7.79938 28.072 8.99317 25.9183 8.99317 25.9183C8.99317 25.9183 11.0398 25.9561 11.1279 28.0531Z" fill="#292F33"/>
<path d="M24.166 6.22593L28.3202 2.07178L34.9668 8.71947L30.8127 12.8736L24.166 6.22593Z" fill="#CCD6DD"/>
<path d="M26.6587 3.73244L27.4895 2.90161L34.1361 9.5472L33.3053 10.378L26.6587 3.73244ZM24.998 5.3941L25.8278 4.56432L32.4745 11.2099L31.6436 12.0407L24.998 5.3941Z" fill="#99AAB5"/>
</svg>
